<svg width="120" height="108" viewBox="0 0 120 108" fill="none" xmlns="http://www.w3.org/2000/svg">
<g clip-path="url(#clip0_4444_4774)">
<path d="M37.4756 99.1416C37.9344 99.4798 38.2 99.7214 38.5059 99.8986C42.1761 102.025 45.7981 104.239 49.5488 106.228C51.6643 107.426 54.0616 108.035 56.4917 107.992C58.9219 107.95 61.2962 107.257 63.3686 105.987C68.6245 102.999 73.8321 99.9308 79.0961 96.9592C84.191 94.0762 86.654 89.7114 86.646 83.9051C86.646 77.9056 86.646 71.906 86.646 65.9065C86.5977 60.5431 84.3116 56.4199 79.6353 53.698C74.1782 50.5251 68.7372 47.3361 63.2318 44.2517C61.1221 42.9871 58.7088 42.3192 56.2494 42.3192C53.7901 42.3192 51.3768 42.9871 49.267 44.2517C46.6753 45.6932 44.1401 47.2475 41.5403 48.6809C40.663 49.1641 40.2926 49.6553 40.6387 50.6781C40.9848 51.7008 41.1377 52.7155 41.4436 53.8993C44.4861 52.1598 47.448 50.6137 50.257 48.8179C54.3378 46.2167 58.1932 46.2811 62.3303 48.8179C67.1596 51.8297 72.1338 54.5355 77.0677 57.338C78.6607 58.1553 79.9868 59.4115 80.8896 60.9582C81.7923 62.505 82.2341 64.2778 82.1627 66.0675C82.1627 72.0644 82.1627 78.0612 82.1627 84.0581C82.2486 85.8469 81.8213 87.623 80.9314 89.1769C80.0415 90.7308 78.7261 91.9975 77.1402 92.8279C71.7958 95.8881 66.4835 98.9886 61.1552 102.057C59.7041 102.954 58.0319 103.43 56.3259 103.43C54.6199 103.43 52.9476 102.954 51.4966 102.057C49.0095 100.648 46.4983 99.2543 44.0595 97.7645C43.694 97.5158 43.2674 97.3723 42.826 97.3496C42.3846 97.3269 41.9455 97.4259 41.5564 97.6357C40.2927 98.2558 38.9807 98.6101 37.4756 99.1416Z" fill="#FFA400"/>
<path d="M85.7041 47.3039C85.9337 47.4932 86.1729 47.6705 86.4206 47.8353C88.9881 49.3171 91.5153 50.8633 94.1231 52.2484C95.6007 53.088 97.2766 53.5153 98.9756 53.4856C100.675 53.4558 102.334 52.9701 103.782 52.0793C107.444 49.9936 111.082 47.8595 114.752 45.7818C116.41 44.9298 117.787 43.6188 118.72 42.0054C119.654 40.3919 120.104 38.544 120.016 36.6818C120.016 32.4942 120.016 28.3147 120.016 24.1271C120.071 22.3946 119.643 20.6811 118.78 19.1779C117.917 17.6748 116.654 16.4412 115.131 15.6149C111.324 13.4003 107.525 11.1696 103.685 9.01946C102.214 8.13818 100.531 7.67279 98.8157 7.67279C97.1006 7.67279 95.4177 8.13818 93.9461 9.01946C92.1351 10.018 90.3644 11.1052 88.5534 12.1038C87.9417 12.442 87.6841 12.7883 87.9336 13.4969C88.1832 14.2056 88.2799 14.9224 88.473 15.7599C90.5979 14.5439 92.6664 13.4647 94.6303 12.2165C97.4716 10.4046 100.16 10.4529 103.033 12.2165C106.382 14.3103 109.867 16.2431 113.304 18.1597C114.415 18.729 115.341 19.6048 115.972 20.6836C116.602 21.7624 116.911 22.9992 116.861 24.2479C116.861 28.4274 116.861 32.607 116.861 36.7946C116.918 38.0418 116.618 39.2795 115.996 40.3621C115.375 41.4448 114.457 42.3275 113.352 42.9068C109.633 45.0409 105.923 47.1991 102.204 49.3493C101.192 49.9786 100.024 50.3121 98.8318 50.3121C97.6399 50.3121 96.4718 49.9786 95.4594 49.3493C93.7208 48.3668 91.9743 47.3924 90.2679 46.3536C90.0136 46.1783 89.7155 46.0773 89.407 46.0616C89.0986 46.046 88.7919 46.1164 88.5212 46.265C87.6519 46.6918 86.7585 46.9415 85.7041 47.3039Z" fill="#FFA400"/>
<path d="M18.9558 29.3021C21.5832 28.8832 24.2597 29.7683 26.5847 31.8041L27.0457 32.226L27.0476 32.2279C29.5327 34.6252 31.7357 37.2989 33.614 40.1967L33.9822 40.7777C37.7072 46.8073 38.9945 53.6349 39.8943 60.2562L40.0506 61.4711C40.3883 64.3192 40.5526 67.2499 40.8211 70.267C40.865 70.761 40.6615 71.2453 40.2781 71.5599C39.8947 71.8745 39.38 71.9788 38.9041 71.8392C33.8486 70.3567 28.8245 69.0224 24.4451 65.972V65.973C18.6998 62.0066 13.573 57.2236 10.8084 50.2914L10.8093 50.2904C9.7332 47.7495 9.28055 44.9875 9.49293 42.2357C9.70624 39.4721 10.583 36.8006 12.0476 34.4476C13.7507 31.5988 16.1779 29.7452 18.9558 29.3021ZM24.6101 34.0619C22.829 32.4996 21.0154 32.011 19.4285 32.264C17.7198 32.5365 15.9728 33.7171 14.6101 36.0072C14.6051 36.0157 14.5997 36.0242 14.5945 36.0326C13.3847 37.9761 12.6604 40.1832 12.4841 42.4662C12.3079 44.7491 12.6846 47.0414 13.5818 49.1478C13.5863 49.1585 13.5912 49.1693 13.5955 49.1801C15.8933 54.9419 20.0627 59.1388 25.1257 62.7826L26.1502 63.5043L26.155 63.5082C29.5163 65.8505 33.3202 67.0721 37.6511 68.3461C37.4368 65.6299 37.2692 63.153 36.9236 60.6693L36.9226 60.6644C36.0002 53.8749 34.7182 47.4016 31.0984 41.8314L31.0974 41.8304C29.3436 39.1245 27.2868 36.6277 24.9666 34.389L24.6101 34.0619Z" fill="#FFA400"/>
<path d="M4.36363 59.4841C6.13648 59.0761 7.9719 59.0145 9.76793 59.3034L9.76695 59.3044C11.5016 59.5528 13.1941 60.0321 14.7992 60.7302L15.4847 61.0436L15.4916 61.0475C21.4481 63.9547 27.3266 67.0365 33.264 70.071C33.7896 70.3396 34.1087 70.8916 34.0795 71.4811C34.0502 72.0706 33.6779 72.5882 33.1283 72.8034C27.284 75.0922 20.9721 75.9285 14.7337 75.2409C14.7188 75.2393 14.7037 75.2371 14.6888 75.235C11.6093 74.8012 8.58237 74.0537 5.65465 73.0046V73.0056C4.50326 72.596 3.44671 71.9566 2.54918 71.1266C1.65171 70.2968 0.93153 69.2935 0.432967 68.1774L0.433943 68.1765C-0.416903 66.4359 -0.501014 64.5454 0.197615 62.9157C0.908318 61.258 2.37022 60.0068 4.31969 59.4948L4.36363 59.4841ZM9.29136 62.2653C7.88246 62.0387 6.44311 62.086 5.05211 62.404C3.95239 62.701 3.27428 63.3539 2.95543 64.0974C2.64998 64.8098 2.62423 65.7263 3.05308 66.6999L3.14488 66.8952L3.17222 66.9538C3.50537 67.6995 3.98593 68.3702 4.58531 68.9245C5.1097 69.4094 5.71591 69.7965 6.37437 70.069L6.66051 70.1784L6.66344 70.1804C9.3919 71.1583 12.2128 71.8554 15.0824 72.2614C19.6753 72.7651 24.3107 72.3721 28.7357 71.1188C23.8572 68.6104 19.0498 66.1225 14.1761 63.7438V63.7429C12.6424 63.0053 11.0036 62.5092 9.31871 62.2702C9.3096 62.2689 9.30044 62.2668 9.29136 62.2653Z" fill="#FFA400"/>
<path d="M59.6498 53.708C59.996 53.6869 60.3336 53.7275 60.5825 53.7646C60.7924 53.796 61.1436 53.86 61.2836 53.8828C61.4943 53.917 61.6193 53.9297 61.6948 53.9297C62.2136 53.9298 62.6956 54.1978 62.9692 54.6387C63.2427 55.0798 63.2693 55.6317 63.0385 56.0967C62.6261 56.9274 62.1241 57.7107 61.5424 58.4326C61.513 58.4691 61.4813 58.5036 61.4487 58.5371C60.9134 59.0868 60.1996 59.1969 59.9184 59.2383C59.743 59.2641 59.5535 59.2826 59.4379 59.2949C59.2996 59.3097 59.2218 59.3202 59.1684 59.3311C59.0925 59.3465 59.0153 59.3568 58.9379 59.3603C58.6667 59.3727 58.399 59.4254 58.143 59.5146C55.362 61.1709 53.1968 63.6672 51.9448 66.624C52.2069 66.5619 52.4547 66.4473 52.6733 66.2861C54.2015 65.1568 55.9439 64.3505 57.7934 63.915L57.9184 63.8906C60.6869 63.484 63.4772 63.2342 66.2739 63.1426V63.1436C66.8505 63.1101 67.4215 63.2535 67.9106 63.5547L68.1244 63.7002L68.2192 63.7773C68.2496 63.8043 68.2789 63.8329 68.3071 63.8623C68.6917 64.2638 69.0302 64.7074 69.3159 65.1846C69.722 65.8632 69.5314 66.7404 68.8803 67.1894C68.8635 67.201 68.8267 67.2297 68.7426 67.3027C68.6798 67.3573 68.5497 67.4738 68.433 67.5684C68.3105 67.6676 68.1288 67.8057 67.9057 67.9209C67.6791 68.0379 67.3483 68.163 66.9428 68.1631C66.926 68.1631 66.9088 68.1636 66.892 68.1631C66.1039 68.1364 65.3266 67.9695 64.5961 67.6728C64.1528 67.5197 63.7531 67.2777 63.5756 67.1787C63.3549 67.0556 63.2995 67.0438 63.3168 67.0469C63.3156 67.0467 63.3142 67.047 63.3129 67.0469C61.7144 66.8313 60.0882 66.9579 58.5424 67.4189C57.7176 67.665 56.9257 68.0043 56.1811 68.4268C56.6769 68.8322 56.8693 69.5206 56.6264 70.1367C56.2657 71.0516 56.3179 71.3964 56.3608 71.5176C56.396 71.6169 56.5449 71.9008 57.3959 72.3301C58.337 72.8047 58.6249 72.7736 58.6694 72.7637C58.6758 72.7622 58.6855 72.7589 58.7035 72.749C58.7235 72.738 58.762 72.7136 58.8188 72.6621C58.9412 72.5511 59.1121 72.3496 59.3412 71.9883L59.436 71.8555C59.6728 71.559 60.0154 71.3612 60.395 71.3066C60.8285 71.2445 61.2678 71.3752 61.5971 71.6641C62.0971 72.1027 62.609 72.5222 63.1235 72.9404C63.1547 72.9658 63.1852 72.9927 63.2143 73.0205C65.0297 74.7565 66.1039 76.8506 65.7504 78.9697C65.3899 81.1311 63.6564 82.6863 61.267 83.5625L61.268 83.5635C57.5677 84.9421 54.0557 85.1848 50.9418 84.0986C47.8161 83.0083 45.2995 80.6504 43.4643 77.2314C42.5934 75.6153 42.3716 73.6956 42.7328 71.998C43.0706 70.4114 43.9641 68.8468 45.5219 67.9961L45.852 67.8311C47.5317 67.0781 48.1501 65.9057 48.936 64.0107C49.2312 63.2028 49.6754 62.4574 50.2485 61.8154L50.3168 61.7441C52.9055 59.2025 55.5276 56.6764 58.2856 54.2344L58.3237 54.2012C58.7873 53.8175 59.3119 53.7287 59.6498 53.708ZM49.2407 69.1475C48.6654 69.6877 47.9625 70.1735 47.0795 70.5693C46.4263 70.8724 45.8896 71.5788 45.6674 72.623C45.4452 73.6673 45.5907 74.8559 46.1039 75.8086L46.1059 75.8115C47.6671 78.7207 49.6601 80.4738 51.9301 81.2656C54.2129 82.0619 56.9835 81.9583 60.2211 80.7519L60.2289 80.749C62.061 80.0787 62.6753 79.1717 62.7914 78.4766C62.9138 77.7432 62.5983 76.5966 61.1772 75.2236C61.0526 75.1223 60.9262 75.019 60.7983 74.9141C60.3906 75.2757 59.9094 75.5605 59.3227 75.6914C58.1757 75.9473 57.0507 75.5164 56.0444 75.0088C54.9486 74.4561 53.9544 73.7097 53.5326 72.5186C53.2753 71.7914 53.2857 71.0498 53.436 70.3271L52.6567 69.9111C52.5115 69.8335 52.3838 69.7319 52.2739 69.6152C52.1579 69.6338 52.0408 69.6488 51.9233 69.6592C51.0073 69.7402 50.0865 69.5677 49.2621 69.1602C49.2548 69.1565 49.248 69.1512 49.2407 69.1475Z" fill="#FFA400"/>
<path d="M34.3301 72.0547C34.8207 72.0213 35.4267 72.0556 36.0654 72.0918C37.3961 72.1556 38.7197 72.3272 40.0215 72.6075L40.5781 72.7344L40.6689 72.7598C41.1818 72.9176 41.6534 73.1882 42.0479 73.5518C42.3927 73.8698 42.6715 74.2518 42.8691 74.6758L42.9492 74.8604L42.9922 74.9844C43.7395 77.4639 45.1853 79.6752 47.1562 81.3536C47.1656 81.3615 47.1754 81.3698 47.1846 81.378C47.8541 81.9773 48.4491 82.5155 48.8809 83.0127C49.3225 83.5215 49.7361 84.1449 49.8389 84.9444C49.9406 85.7365 49.7037 86.4473 49.4141 87.0586C49.1282 87.6622 48.6967 88.3562 48.2021 89.1416C47.7122 89.9531 47.1341 90.7078 46.4785 91.3926C46.4346 91.4384 46.3882 91.4816 46.3389 91.5215C45.9877 91.8057 45.579 92.0101 45.1416 92.1202C44.7041 92.2302 44.2473 92.2433 43.8037 92.1592C43.7406 92.1472 43.6782 92.1313 43.6172 92.1114C40.3889 91.0558 37.4776 88.6914 35.3721 85.8545C33.2679 83.0195 31.8605 79.5668 31.8145 76.2129L31.8076 75.2862C31.8101 74.9923 31.82 74.7171 31.8447 74.4727C31.8924 74.0026 32.0196 73.2982 32.5762 72.751C33.1388 72.198 33.8506 72.0874 34.3301 72.0547ZM34.8076 75.3096L34.8145 76.168V76.17C34.8494 78.7505 35.9561 81.6072 37.7812 84.0664C39.5714 86.4785 41.9496 88.3646 44.4102 89.21C44.4112 89.2097 44.412 89.2084 44.4131 89.208C44.8793 88.7061 45.2936 88.1581 45.6465 87.5704C45.652 87.5612 45.6574 87.552 45.6631 87.543C46.1826 86.7179 46.5091 86.184 46.7031 85.7745C46.8927 85.3742 46.8583 85.286 46.8633 85.3262C46.8695 85.3748 46.8887 85.2946 46.6152 84.9795C46.3316 84.6529 45.8904 84.2461 45.1836 83.6133V83.6123C42.8168 81.5876 41.0735 78.9336 40.1543 75.958C40.1214 75.8825 40.0752 75.8138 40.0146 75.7579C39.9545 75.7024 39.8827 75.6614 39.8057 75.6348C38.5309 75.3336 37.2312 75.1497 35.9229 75.087H35.9092C35.4139 75.0588 35.0675 75.0421 34.8125 75.0411C34.8097 75.1212 34.8083 75.2102 34.8076 75.3096Z" fill="#FFA400"/>
<path d="M27.6559 73.61C28.1367 73.3334 28.7309 73.3447 29.2008 73.6393C29.6708 73.934 29.9406 74.464 29.901 75.0172C29.595 79.2929 30.2735 82.8281 31.8786 85.7907C33.4846 88.7549 36.0832 91.2662 39.8171 93.3835C40.3668 93.6952 40.6618 94.3182 40.5553 94.9411C40.4488 95.5639 39.9634 96.0532 39.3415 96.1647C37.3893 96.5147 35.9898 96.7508 34.5973 97.0358C34.5903 97.0372 34.5829 97.0384 34.5758 97.0397C33.6194 97.221 32.6327 97.1689 31.7008 96.8874C30.7988 96.6148 29.9749 96.1336 29.2917 95.486C23.9227 90.9928 21.8941 85.1552 22.279 78.4635H22.2799C22.3102 77.6268 22.6607 76.8327 23.2633 76.2487L23.3659 76.1588C23.4012 76.1304 23.4375 76.103 23.4753 76.0778C24.7375 75.2359 26.1004 74.5049 27.6559 73.61ZM26.8366 77.5319C26.2935 77.8462 25.7937 78.146 25.3053 78.4655C25.2874 78.4995 25.2767 78.5374 25.276 78.5768C25.2757 78.5965 25.2752 78.6167 25.2741 78.6364C24.9457 84.3477 26.5766 89.0943 30.8151 92.8395L31.2331 93.1989L31.32 93.277C31.6709 93.62 32.0996 93.8735 32.569 94.0153C33.036 94.1564 33.53 94.183 34.0094 94.0934C34.3714 94.0194 34.7351 93.9489 35.1071 93.8786C32.5924 91.9776 30.6258 89.7755 29.2409 87.2194C27.6905 84.3578 26.9104 81.1328 26.8366 77.5319Z" fill="#FFA400"/>
<path d="M18.1227 80.8602C18.5504 80.4219 19.2021 80.288 19.7682 80.5213C20.3342 80.7547 20.7011 81.3085 20.696 81.9207C20.6764 84.2093 21.1448 86.4757 22.069 88.5691C22.9933 90.6626 24.3532 92.5356 26.0573 94.0623C26.5552 94.5086 26.697 95.2309 26.4059 95.8328C26.1147 96.4346 25.4603 96.7714 24.8014 96.658C21.4968 96.0893 18.3918 95.3048 15.9391 93.0662C15.9342 93.0617 15.9293 93.0571 15.9245 93.0525C14.8998 92.0914 14.2482 90.7984 14.0846 89.4031C14.0815 89.3764 14.0795 89.3489 14.0778 89.3221C13.8399 85.5412 16.1083 82.924 18.1227 80.8602ZM18.0358 85.6443C17.3647 86.7146 16.9989 87.8152 17.069 89.0887C17.1567 89.7669 17.4768 90.3937 17.9752 90.8621C18.7989 91.6105 19.7476 92.1555 20.8542 92.5828C20.269 91.6954 19.7565 90.7588 19.3249 89.7811C18.738 88.4518 18.3067 87.0637 18.0358 85.6443Z" fill="#FFA400"/>
<path d="M67.7122 -0.184848C69.6065 -0.484188 71.5011 0.166643 73.1067 1.57492L73.4241 1.86691L73.4251 1.86789C75.0732 3.45944 76.5352 5.23328 77.7845 7.15402C80.4595 11.2643 81.3441 15.9789 81.9583 20.4343L82.0579 21.2204C82.2753 23.0683 82.3855 25.0061 82.5618 26.947C82.6066 27.4414 82.4033 27.9257 82.0198 28.2409C81.6362 28.5562 81.1213 28.662 80.6448 28.5222C77.374 27.5624 74.0167 26.6726 71.0853 24.6941L71.0784 24.6892C67.2535 22.0769 63.8529 18.8789 61.9993 14.2292L62.0003 14.2282C61.2673 12.4958 60.9586 10.613 61.1038 8.73703C61.249 6.86221 61.8417 5.04995 62.8313 3.45187L63.0569 3.08761C64.2118 1.30655 65.8304 0.112589 67.7122 -0.184848ZM71.3421 4.02707C70.2035 2.93055 69.0889 2.63437 68.18 2.77804C67.2577 2.92392 66.2412 3.57149 65.4183 4.9714C65.4116 4.98273 65.4047 4.99444 65.3978 5.00558C64.651 6.20228 64.204 7.56196 64.095 8.96847C63.9929 10.2872 64.1908 11.6111 64.6722 12.8405L64.7718 13.0857L64.7854 13.1189C66.3284 16.9891 69.19 19.7667 72.7698 22.2116H72.7688C74.7073 23.5186 76.8816 24.2705 79.3909 25.0232C79.2758 23.5489 79.1727 22.1981 78.9856 20.8454V20.8444C78.3955 16.564 77.6049 12.5569 75.4808 9.12179L75.2708 8.79074C74.145 7.05976 72.8271 5.46129 71.3421 4.02707Z" fill="#FFA400"/>
<path d="M58.1507 19.4832C59.3629 19.2076 60.6158 19.166 61.844 19.3562L61.845 19.3543C63.0285 19.5127 64.1845 19.831 65.2815 20.2986L65.7483 20.5076L65.7659 20.5164C69.6518 22.4159 73.4877 24.4281 77.3538 26.3982C77.8799 26.6663 78.2 27.2186 78.1712 27.8084C78.1422 28.3979 77.7705 28.9161 77.221 29.1316C73.328 30.658 69.1221 31.215 64.9661 30.7556C64.9511 30.754 64.9361 30.7519 64.9212 30.7498C62.8821 30.4613 60.8768 29.9684 58.9368 29.2771V29.2761C58.1251 28.9873 57.3799 28.5385 56.7444 27.9568C56.1254 27.3901 55.6247 26.7078 55.2669 25.949C54.9405 25.3663 54.7484 24.718 54.7093 24.0505C54.6686 23.3567 54.7916 22.6623 55.0696 22.0252C55.3476 21.388 55.7726 20.8255 56.3089 20.3836C56.8435 19.9431 57.4747 19.6356 58.1507 19.4841V19.4832ZM61.4114 22.323C60.5487 22.1861 59.6675 22.2153 58.8157 22.4089L58.8089 22.4099C58.5919 22.4582 58.3889 22.5575 58.2171 22.699C58.0451 22.8407 57.9087 23.0212 57.8196 23.2253C57.7305 23.4296 57.6903 23.6521 57.7034 23.8748C57.7132 24.0416 57.7532 24.2048 57.8196 24.3572L57.8948 24.5066L57.9632 24.6375C58.1555 25.0567 58.4297 25.4335 58.7698 25.7449C59.0675 26.0174 59.4105 26.2348 59.7825 26.3884L59.9436 26.45L59.9446 26.4509C61.6855 27.0713 63.4843 27.5144 65.3137 27.7752C67.7868 28.0466 70.279 27.9101 72.6936 27.3796C69.9404 25.9646 67.223 24.5684 64.4661 23.2205L64.1057 23.0584C63.257 22.6965 62.3622 22.4505 61.4466 22.3279C61.4348 22.3263 61.4231 22.3249 61.4114 22.323Z" fill="#FFA400"/>
<path d="M94.2543 15.671C94.5348 15.6539 94.7978 15.6878 94.9652 15.713C95.0835 15.7309 95.3754 15.7832 95.4242 15.7911C95.4839 15.8008 95.5289 15.8069 95.5638 15.8107C95.5945 15.814 95.6093 15.8145 95.6117 15.8146C96.1278 15.8146 96.6078 16.0796 96.8822 16.5167C97.1565 16.9541 97.187 17.5021 96.9623 17.9669C96.6803 18.5502 96.3325 19.0993 95.9252 19.6027L95.9232 19.6007C95.6723 19.9167 95.3672 20.0919 95.1253 20.1866C94.8811 20.2823 94.6523 20.3177 94.5101 20.3351C94.3713 20.3521 94.2183 20.3608 94.1556 20.3654C94.0931 20.3699 94.066 20.3732 94.058 20.3741C93.9866 20.3877 93.9138 20.3964 93.8412 20.3995C93.7339 20.4042 93.6277 20.4213 93.5248 20.4513C92.3507 21.1602 91.3584 22.1131 90.6048 23.2335C91.3433 22.8363 92.1322 22.5358 92.9525 22.3439L93.0765 22.3204C94.9011 22.0527 96.7393 21.889 98.5824 21.8302V21.8312C99.122 21.8023 99.6564 21.957 100.096 22.2745C100.171 22.3289 100.241 22.3909 100.305 22.4581C100.578 22.7458 100.821 23.0614 101.029 23.4005C101.444 24.0799 101.256 24.9658 100.601 25.4181C100.615 25.4084 100.609 25.4104 100.555 25.4572C100.522 25.486 100.424 25.5728 100.337 25.6427C100.245 25.7166 100.095 25.831 99.9037 25.9288C99.7095 26.0282 99.4117 26.1427 99.0404 26.1427C99.0264 26.1427 99.0124 26.1421 98.9984 26.1417C98.4123 26.125 97.834 26.0027 97.2914 25.7814C97.2329 25.7575 97.1754 25.7304 97.1205 25.6993C96.9138 25.5828 96.6991 25.4813 96.4779 25.3956C95.5588 25.2919 94.6279 25.3729 93.7406 25.6378C93.4233 25.7325 93.1147 25.8518 92.8158 25.9904C92.9545 26.3341 92.9673 26.7274 92.8236 27.0958C92.7205 27.3602 92.6818 27.5236 92.6703 27.6163C92.7243 27.6633 92.842 27.7504 93.0785 27.8702C93.2758 27.9702 93.4178 28.0257 93.516 28.0597C93.5559 28.0083 93.6077 27.9373 93.6703 27.839C93.9056 27.4693 94.2911 27.2209 94.725 27.1593C95.159 27.0978 95.5992 27.2298 95.9281 27.5197C96.244 27.7981 96.5634 28.0583 96.9076 28.3439C96.9321 28.3643 96.9566 28.3854 96.9798 28.4074C98.2298 29.587 99.0623 31.1122 98.7904 32.7345C98.5116 34.3968 97.1856 35.5256 95.5248 36.132C93.036 37.0462 90.6211 37.2217 88.4496 36.4611C86.2651 35.6958 84.5317 34.0561 83.2875 31.7384L83.2884 31.7374C82.6649 30.578 82.4928 29.2057 82.7464 27.9806C83.0003 26.7547 83.7301 25.4964 85.0882 24.8849C85.974 24.4859 86.3265 23.888 86.8246 22.6857C87.0424 22.1053 87.3645 21.5687 87.7757 21.1036L87.8646 21.0118C89.5297 19.4252 91.2605 17.7183 93.0716 16.1359V16.1368C93.5 15.7614 93.9862 15.6874 94.2543 15.671ZM87.5589 26.8644C87.2091 27.146 86.8021 27.404 86.3197 27.6212C86.0681 27.7345 85.8003 28.0272 85.6839 28.589C85.5677 29.1509 85.6529 29.8024 85.93 30.3175L85.931 30.3195C86.9002 32.1246 88.1091 33.1622 89.4418 33.629C90.7874 34.1004 92.4643 34.0609 94.4906 33.3165L94.4945 33.3156C95.5922 32.9153 95.7982 32.4354 95.8314 32.2384C95.8695 32.0111 95.8013 31.4672 95.0326 30.6993C94.7928 30.8512 94.5204 30.9724 94.2084 31.0411C93.2693 31.248 92.3909 30.8853 91.723 30.547C90.9704 30.1658 90.1736 29.6011 89.8304 28.6359C89.671 28.1875 89.6421 27.7413 89.6869 27.3156L89.5062 27.2179C89.4478 27.1863 89.3922 27.1509 89.3392 27.1124C89.3242 27.1139 89.3093 27.117 89.2943 27.1183C88.7027 27.1706 88.1085 27.0822 87.5589 26.8644Z" fill="#FFA400"/>
<path d="M78.9631 27.6292L78.9699 27.6302C79.8641 27.6751 80.753 27.7916 81.6281 27.9788L82.0031 28.0638L82.1076 28.0921C82.4645 28.205 82.795 28.3872 83.0813 28.6263L83.2014 28.7318L83.3156 28.845C83.5365 29.076 83.7176 29.3423 83.8508 29.6331L83.9133 29.7806L83.9524 29.8939C84.3839 31.3193 85.1907 32.6002 86.2854 33.6038L86.508 33.8011L86.5344 33.8236C86.9634 34.2066 87.3777 34.5789 87.6848 34.931C88.002 35.2948 88.3499 35.7954 88.4358 36.4661C88.5204 37.1285 88.3158 37.7012 88.1096 38.1351C87.9068 38.5619 87.6065 39.043 87.2873 39.5501C86.9525 40.1141 86.5536 40.6378 86.0969 41.1087C86.055 41.1519 86.0099 41.1919 85.9631 41.2298C85.6766 41.4617 85.3439 41.6292 84.9875 41.72C84.6305 41.811 84.2578 41.8236 83.8957 41.7572C83.8312 41.7453 83.7677 41.7285 83.7053 41.7083C81.4763 40.9874 79.4957 39.3706 78.0744 37.4593C76.654 35.5492 75.6825 33.1971 75.6486 30.8812V30.8802C75.6431 30.472 75.6359 30.0386 75.6721 29.682C75.7066 29.3423 75.8042 28.7353 76.2883 28.2464C76.7824 27.7475 77.3984 27.6511 77.7531 27.6214C77.9354 27.6062 78.1354 27.6034 78.341 27.6068L78.9631 27.6292ZM78.6477 30.8372C78.6702 32.3787 79.3405 34.1347 80.4817 35.6693C81.5192 37.0645 82.8563 38.1525 84.2229 38.7044C84.408 38.4809 84.5768 38.2443 84.7238 37.9935L84.7483 37.9525C85.0837 37.4196 85.2768 37.0996 85.3899 36.8665C85.2283 36.6884 84.9735 36.4512 84.5363 36.0609H84.5354C82.9517 34.7019 81.7778 32.9308 81.1399 30.9456C80.3768 30.774 79.6009 30.6655 78.8195 30.6263V30.6253C78.7581 30.6225 78.7002 30.6218 78.6457 30.6195C78.6464 30.6869 78.6466 30.7592 78.6477 30.8372Z" fill="#FFA400"/>
<path d="M73.2031 28.7231C73.6838 28.4456 74.2785 28.4559 74.749 28.7504C75.2193 29.045 75.4887 29.5758 75.4492 30.1293C75.2559 32.834 75.6863 35.0334 76.6767 36.8666C77.6686 38.7026 79.2868 40.2915 81.665 41.6645C82.2102 41.9793 82.5007 42.6009 82.3925 43.2211C82.2841 43.8415 81.7994 44.3286 81.1796 44.4399C79.91 44.6679 79.0009 44.825 78.0947 45.0063C78.09 45.0072 78.0847 45.0074 78.08 45.0082C77.3698 45.1433 76.6368 45.1036 75.9452 44.892C75.2796 44.6883 74.6729 44.3305 74.1708 43.85C70.5468 40.8092 69.1731 36.8467 69.4374 32.35H69.4394C69.4504 32.0266 69.5179 31.7069 69.6464 31.4077L69.7636 31.1694C69.8922 30.9381 70.0557 30.727 70.248 30.5444C70.2982 30.4967 70.3518 30.4528 70.4081 30.4125C71.2753 29.7928 72.2209 29.29 73.2031 28.7231ZM72.4247 32.6645C72.2481 36.1875 73.2761 39.0684 75.8691 41.3549L76.1288 41.5776L76.2245 41.6655C76.3923 41.832 76.5979 41.9549 76.8232 42.0239C76.9096 42.0503 76.9986 42.0647 77.0878 42.0747C75.8263 40.9615 74.8031 39.7085 74.038 38.2924C73.1163 36.5863 72.6004 34.7043 72.4511 32.6469C72.4423 32.6528 72.4335 32.6586 72.4247 32.6645Z" fill="#FFA400"/>
<path d="M66.8742 33.516C67.3017 33.0777 67.9535 32.9441 68.5197 33.1771C69.0855 33.4102 69.4532 33.9636 69.4484 34.5756C69.4371 35.993 69.727 37.3972 70.299 38.6937C70.8709 39.9902 71.7118 41.1503 72.7658 42.097C73.2639 42.5445 73.4047 43.2676 73.1115 43.8695C72.8181 44.4715 72.1615 44.8064 71.5021 44.6898C69.3521 44.3097 67.1934 43.8082 65.4601 42.2152C65.4552 42.2107 65.4503 42.2061 65.4455 42.2015C64.693 41.491 64.2164 40.5368 64.0998 39.5082C64.097 39.4841 64.0945 39.4601 64.0929 39.4359C63.9183 36.7167 65.5603 34.8628 66.8742 33.516ZM67.0998 38.7172C67.0822 38.8761 67.0763 39.0382 67.0851 39.2054C67.1277 39.511 67.2714 39.7934 67.4933 40.0082C67.5522 40.0622 67.6119 40.1148 67.673 40.1654C67.6325 40.0788 67.5925 39.9913 67.5539 39.9037C67.3825 39.5152 67.2318 39.1189 67.0998 38.7172Z" fill="#FFA400"/>
</g>
<defs>
<clipPath id="clip0_4444_4774">
<rect width="120" height="108" fill="white"/>
</clipPath>
</defs>
</svg>
